<svg xmlns="http://www.w3.org/2000/svg" width="57.826" height="56.087" data-name="https://www.flaticon.com/free-icon/layers_149298"><defs><linearGradient id="a" x1=".5" x2=".5" y2="1" gradientUnits="objectBoundingBox"><stop offset="0" stop-color="#615cfd"/><stop offset="1" stop-color="#d465ef"/></linearGradient></defs><circle cx="1.052" cy="1.052" r="1.052" fill="url(#a)" data-name="Ellipse 5" transform="translate(46.322 25.412)"/><circle cx="1.052" cy="1.052" r="1.052" fill="url(#a)" data-name="Ellipse 6" transform="translate(8.44 25.412)"/><circle cx="1.052" cy="1.052" r="1.052" fill="url(#a)" data-name="Ellipse 7" transform="translate(11.597 28.569)"/><circle cx="1.052" cy="1.052" r="1.052" fill="url(#a)" data-name="Ellipse 8" transform="translate(17.911 28.569)"/><circle cx="1.052" cy="1.052" r="1.052" fill="url(#a)" data-name="Ellipse 9" transform="translate(14.754 31.726)"/><circle cx="1.052" cy="1.052" r="1.052" fill="url(#a)" data-name="Ellipse 10" transform="translate(21.067 31.726)"/><circle cx="1.052" cy="1.052" r="1.052" fill="url(#a)" data-name="Ellipse 11" transform="translate(24.224 34.883)"/><circle cx="1.052" cy="1.052" r="1.052" fill="url(#a)" data-name="Ellipse 12" transform="translate(30.538 34.883)"/><circle cx="1.052" cy="1.052" r="1.052" fill="url(#a)" data-name="Ellipse 13" transform="translate(33.695 31.726)"/><circle cx="1.052" cy="1.052" r="1.052" fill="url(#a)" data-name="Ellipse 14" transform="translate(27.381 38.039)"/><circle cx="1.052" cy="1.052" r="1.052" fill="url(#a)" data-name="Ellipse 15" transform="translate(36.851 28.569)"/><circle cx="1.052" cy="1.052" r="1.052" fill="url(#a)" data-name="Ellipse 16" transform="translate(43.165 28.569)"/><circle cx="1.052" cy="1.052" r="1.052" fill="url(#a)" data-name="Ellipse 17" transform="translate(40.008 31.726)"/><path fill="url(#a)" d="m47.94 34.467 9.885-5.648-10.16-5.769 10.161-5.805L28.913.826 0 17.245l10.161 5.805L0 28.819l10.161 5.805L0 40.394l28.913 16.519 28.913-16.519-10.161-5.77.075-.043a.994.994 0 0 0 .2-.114ZM28.913 3.245l24.661 14-8.036 4.592-16.624 9.5L4.252 17.25Zm-17.2 21.344a1.038 1.038 0 0 0 1.667.3l2.38 1.36a1.048 1.048 0 1 0 1.1 1.043 1.025 1.025 0 0 0-.139-.494l10.87 6.21a1.024 1.024 0 0 0-.208.6 1.052 1.052 0 0 0 2.1 0 .908.908 0 0 0-.031-.15l10.58-6.048a1.04 1.04 0 0 0 1.028.931 1.053 1.053 0 0 0 1.052-1.052 1.03 1.03 0 0 0-.427-.824L44 25.142a.983.983 0 0 0 .215.043 1.041 1.041 0 0 0 .987-.73l.337-.193 8.033 4.562-2.087 1.192a1.049 1.049 0 0 0-2.008.43 1.025 1.025 0 0 0 .209.6l-4.151 2.372-6.722 3.841a1.024 1.024 0 0 0 .141-.5 1.052 1.052 0 1 0-1.1 1.043l-2.381 1.361a1.049 1.049 0 0 0-1.783.753 1 1 0 0 0 .048.238l-4.83 2.759-5.799-3.313a1.041 1.041 0 0 0-.988-.732.991.991 0 0 0-.217.044l-2.316-1.323a1.033 1.033 0 0 0 .428-.825 1.053 1.053 0 0 0-1.052-1.052 1.041 1.041 0 0 0-1.028.933L7.356 30.6a.948.948 0 0 0-1.022-1.2 1.03 1.03 0 0 0-.653.247l-1.43-.817ZM53.573 40.4 28.912 54.489 4.252 40.4l8.032-4.562 16.629 9.5 16.628-9.5Z" data-name="Path 2747" transform="translate(0 -.826)"/></svg>