<svg xmlns="http://www.w3.org/2000/svg" width="56.267" height="56.087"><defs><linearGradient id="a" x1=".5" x2=".5" y2="1" gradientUnits="objectBoundingBox"><stop offset="0" stop-color="#615cfd"/><stop offset="1" stop-color="#d465ef"/></linearGradient></defs><g data-name="https://www.flaticon.com/free-icon/sketch_681662"><g data-name="Group 10"><g data-name="Group 9"><path fill="url(#a)" d="M370.685 360.812a.826.826 0 0 0-.9.179l-9.025 9.025a.826.826 0 0 0 .584 1.41h9.025a.826.826 0 0 0 .826-.826v-9.025a.826.826 0 0 0-.51-.763Zm-7.348 8.962 6.206-6.206v6.206Z" data-name="Path 2748" transform="translate(-320.897 -321.194)"/></g></g><g data-name="Group 12"><g data-name="Group 11"><path fill="url(#a)" d="M55.757 27.2a.826.826 0 0 0-.9.179l-2.473 2.473V13.035a.826.826 0 0 0-.826-.826h-6.346l2.3-2.3 2.219-2.219a2.519 2.519 0 0 0 0-3.561L47.17 1.557a2.519 2.519 0 0 0-3.561 0l-2.221 2.221L38.7 6.461l-5.748 5.748H7.321v-8.17a.826.826 0 0 0-.821-.826A6.5 6.5 0 0 0 0 9.709v35.077a.828.828 0 0 0 .02.177 6.255 6.255 0 0 0 6.237 5.78h25.236L26.74 55.5a.826.826 0 0 0 .584 1.41h28.117a.826.826 0 0 0 .826-.826V27.963a.826.826 0 0 0-.51-.763ZM44.777 2.725a.867.867 0 0 1 1.225 0l2.567 2.567a.867.867 0 0 1 0 1.225l-1.637 1.637-3.792-3.792Zm-2.8 2.8 3.792 3.792-1.515 1.515-3.797-3.787Zm12.639 31.718h-1.524a.826.826 0 0 0 0 1.652h1.524v2.489h-1.524a.826.826 0 0 0 0 1.652h1.524v2.489h-1.524a.826.826 0 0 0 0 1.652h1.524v2.489h-1.524a.826.826 0 0 0 0 1.652h1.524v3.939h-25.3l8.342-8.342a.826.826 0 0 0-1.168-1.168l-3.347 3.347H6.256a4.578 4.578 0 0 1-4.6-4.456q.007-.235.036-.466.014-.11.033-.218v-.025q.017-.1.039-.193l.012-.053q.019-.081.041-.161l.025-.087.038-.125.042-.123.031-.086c.02-.054.041-.108.063-.161l.019-.046c.028-.066.058-.131.089-.2v-.008a4.862 4.862 0 0 1 3.379-2.643h.013a4.46 4.46 0 0 1 .207-.037L5.765 40c.063-.01.126-.017.19-.024l.053-.006c.061-.006.123-.01.185-.014h.059q.121-.006.244-.006a.826.826 0 0 0 .826-.826v-5.996a.826.826 0 0 0-1.652 0v5.214a6.451 6.451 0 0 0-3.71 1.8 5 5 0 0 0-.308.325V9.709a4.852 4.852 0 0 1 4.017-4.774v24.89a.826.826 0 1 0 1.652 0V13.861h23.984l-4.565 4.566a.826.826 0 0 0 1.168 1.168l5.975-5.975 5.405-5.405 3.792 3.792-.445.445L25.982 29.1l-3.792-3.788 3.282-3.282a.826.826 0 1 0-1.172-1.168l-3.867 3.866a.829.829 0 0 0-.058.065l-.017.023-.034.047-.017.029a.708.708 0 0 0-.026.047l-.015.032a1.009 1.009 0 0 0-.02.049l-.007.017-1.604 4.563-1.1 3.108a.835.835 0 0 0-.033.126h-2.744a.826.826 0 1 0 0 1.652h22.871a.826.826 0 1 0 0-1.652H21.22l5.037-1.778.012-.005.058-.024.023-.01.058-.032.019-.011.058-.041.014-.011a.83.83 0 0 0 .067-.06l16.995-17.001h7.171V31.5L38.919 43.318a.826.826 0 0 0 0 1.168.843.843 0 0 0 .063.057.825.825 0 0 0 1.105-.057l14.529-14.529Zm-30.144-7.314-2.366.835-1.576-1.576.835-2.366Z" data-name="Path 2749" transform="translate(0 -.82)"/></g></g></g></svg>