<svg xmlns="http://www.w3.org/2000/svg" width="59.09" height="56.087"><defs><linearGradient id="a" x1=".5" x2=".5" y2="1" gradientUnits="objectBoundingBox"><stop offset="0" stop-color="#615cfd"/><stop offset="1" stop-color="#d465ef"/></linearGradient></defs><g fill="url(#a)" data-name="https://www.flaticon.com/free-icon/3d_1077703"><path d="M40.624 39.935a1.154 1.154 0 1 0 1.154 1.154 1.154 1.154 0 0 0-1.154-1.154Zm0 0" data-name="Path 2750"/><path d="M30.699 19.62a1.154 1.154 0 1 0-1.154 1.154 1.154 1.154 0 0 0 1.154-1.154Zm0 0" data-name="Path 2751"/><path d="M18.466 42.235a1.154 1.154 0 1 0-1.154-1.15 1.155 1.155 0 0 0 1.154 1.15Zm0 0" data-name="Path 2752"/><path d="m58.401 47.724-6.239-2.772V19.62a1.16 1.16 0 0 0-.709-1.065L30.701 9.627V1.154a1.154 1.154 0 0 0-2.308 0v8.473L7.634 18.554a1.161 1.161 0 0 0-.709 1.065v25.333L.686 47.724a1.154 1.154 0 1 0 .937 2.109l6.463-2.872 21 9.033a1.172 1.172 0 0 0 .912 0l21-9.033 6.463 2.872a1.154 1.154 0 1 0 .937-2.109ZM28.391 12.14V15a1.154 1.154 0 0 0 2.308 0v-2.86l17.391 7.48-18.545 7.98-18.544-7.98Zm-13.09 30.352a1.155 1.155 0 0 0-1.523-.586l-4.546 2.02V21.372l19.158 8.24v23.57l-17.431-7.5 3.756-1.669a1.155 1.155 0 0 0 .586-1.521Zm15.4 10.69v-23.57l19.158-8.24v22.554l-4.546-2.02a1.154 1.154 0 1 0-.937 2.109l3.756 1.669Zm0 0" data-name="Path 2753"/></g></svg>